# xmcd
# 
# Track frame offsets:
#     150
#     17889
#     33813
#     55473
#     73773
#     104889
#     118207
#     138760
#     169936
#     185376
# 
# Disc length: 2818
# 
# Revision: 2
# Processed by: cddbd v1.5.2PL0 Copyright (c) Steve Scherf et al.
# Submitted via: fre:ac v1.0.17
# 
DISCID=920b000a
DTITLE=Calaveras - Water High
DYEAR=2010
DGENRE=Alternative
TTITLE0=Water High
TTITLE1=Ride On
TTITLE2=Evening Light
TTITLE3=The Ripper
TTITLE4=Hands Over You
TTITLE5=Mary Went Home
TTITLE6=Dinah
TTITLE7=Charger ´67
TTITLE8=Six Shells
TTITLE9=Tide Of Love
EXTD=
EXTT0=
EXTT1=
EXTT2=
EXTT3=
EXTT4=
EXTT5=
EXTT6=
EXTT7=
EXTT8=
EXTT9=
PLAYORDER=
